<?xml version="1.0" encoding="utf-8"?>
<!-- Generator: Adobe Illustrator 26.0.3, SVG Export Plug-In . SVG Version: 6.00 Build 0)  -->
<svg version="1.1" id="Layer_1" xmlns="http://www.w3.org/2000/svg" xmlns:xlink="http://www.w3.org/1999/xlink" x="0px" y="0px"
	 viewBox="0 0 512 512" style="enable-background:new 0 0 512 512;" xml:space="preserve">
<style type="text/css">
	.st0{fill:#FFFFFF;}
	.st1{fill:#010080;}
	.st2{fill:#F65C15;}
	.st3{fill:#F65E16;}
</style>
<g>
	<path class="st0" d="M256,511.5c-68.2,0-132.4-26.6-180.7-74.8C27.1,388.4,0.5,324.2,0.5,256S27.1,123.6,75.3,75.3
		C123.6,27.1,187.8,0.5,256,0.5s132.4,26.6,180.7,74.8c48.3,48.3,74.8,112.4,74.8,180.7s-26.6,132.4-74.8,180.7
		S324.2,511.5,256,511.5z"/>
	<path class="st0" d="M256,1c34.4,0,67.8,6.7,99.3,20c30.4,12.8,57.6,31.2,81.1,54.6c23.4,23.4,41.8,50.7,54.6,81.1
		c13.3,31.4,20,64.8,20,99.3s-6.7,67.8-20,99.3c-12.8,30.4-31.2,57.6-54.6,81.1c-23.4,23.4-50.7,41.8-81.1,54.6
		c-31.4,13.3-64.8,20-99.3,20s-67.8-6.7-99.3-20c-30.4-12.8-57.6-31.2-81.1-54.6c-23.4-23.4-41.8-50.7-54.6-81.1
		C7.7,323.8,1,290.4,1,256s6.7-67.8,20-99.3c12.8-30.4,31.2-57.6,54.6-81.1c23.4-23.4,50.7-41.8,81.1-54.6C188.2,7.7,221.6,1,256,1
		 M256,0C114.6,0,0,114.6,0,256s114.6,256,256,256s256-114.6,256-256S397.4,0,256,0L256,0z"/>
</g>
<g>
	<polygon class="st1" points="155.2,130.9 433,130.9 393.6,186 115.8,186 	"/>
	<polygon class="st2" points="170.2,197.7 109.1,293 126.5,293 129.3,280.2 144.9,280.9 145.8,297.9 130.5,299.1 130.2,310.7 
		145.6,311.7 145.6,328.9 129.1,328.9 129.3,345.4 146,345.4 243.3,197.7 	"/>
	<polygon class="st3" points="108.6,311.9 126.6,311.9 126.6,328.3 109.1,328.3 	"/>
	<rect x="94.6" y="333.3" class="st3" width="12.7" height="12.7"/>
	<rect x="115.1" y="350.5" class="st3" width="12.4" height="12.4"/>
	<polygon class="st1" points="269,197.7 182.5,333.3 206.5,411.1 341.8,197.7 	"/>
</g>
</svg>
