<svg id="Layer_1" data-name="Layer 1" xmlns="http://www.w3.org/2000/svg" viewBox="0 0 67.85 20.76"><polygon points="4.37 0 24.39 0 21.55 3.98 1.53 3.98 4.37 0" fill="#010080"/><polygon points="5.45 4.81 1.04 11.69 2.3 11.69 2.5 10.77 3.62 10.82 3.69 12.04 2.58 12.13 2.57 12.96 3.67 13.03 3.67 14.27 2.48 14.27 2.5 15.46 3.71 15.46 10.72 4.81 5.45 4.81" fill="#f65c15"/><polygon points="1.01 13.05 2.31 13.05 2.31 14.23 1.04 14.23 1.01 13.05" fill="#f65e16"/><rect y="14.59" width="0.91" height="0.91" fill="#f65e16"/><rect x="1.48" y="15.83" width="0.9" height="0.9" fill="#f65e16"/><polygon points="12.57 4.81 6.33 14.59 8.07 20.2 17.82 4.81 12.57 4.81" fill="#010080"/><path d="M44,29.73V27.81h.31v1.92ZM44.1,29v-.31h.62a.24.24,0,0,0,.18-.07A.31.31,0,0,0,45,28.4a.28.28,0,0,0-.07-.21.23.23,0,0,0-.18-.08H44.1v-.3h.61a.62.62,0,0,1,.31.07.53.53,0,0,1,.21.21.72.72,0,0,1,0,.62.45.45,0,0,1-.21.2.62.62,0,0,1-.31.08Z" transform="translate(-26 -9.53)" fill="#010080"/><path d="M45.93,27.81v1.52a.19.19,0,0,0,0,.08.08.08,0,0,0,.07,0h.1v.31H46a.3.3,0,0,1-.25-.1.37.37,0,0,1-.09-.27V27.81Z" transform="translate(-26 -9.53)" fill="#010080"/><path d="M46.79,29.75a.49.49,0,0,1-.35-.1.41.41,0,0,1-.12-.32.39.39,0,0,1,.12-.31.56.56,0,0,1,.35-.1h.37l0,.25h-.39a.21.21,0,0,0-.14,0s0,.06,0,.12a.15.15,0,0,0,.06.13.4.4,0,0,0,.18,0,.67.67,0,0,0,.23,0,.14.14,0,0,0,.07-.11l0,.2a.28.28,0,0,1-.08.11.35.35,0,0,1-.14.06A.47.47,0,0,1,46.79,29.75Zm.36,0v-.87a.24.24,0,0,0-.07-.18.27.27,0,0,0-.19-.06l-.16,0a.5.5,0,0,0-.14.08l-.21-.18a.71.71,0,0,1,.22-.15.84.84,0,0,1,.29-.05.59.59,0,0,1,.41.13.52.52,0,0,1,.14.38v.88Z" transform="translate(-26 -9.53)" fill="#010080"/><path d="M47.83,29.73V28.36h.31v1.37Zm.81,0V28.9a.27.27,0,0,0-.06-.19.29.29,0,0,0-.19-.07.21.21,0,0,0-.18.07.21.21,0,0,0-.07.17l0-.28a.49.49,0,0,1,.15-.19.35.35,0,0,1,.23-.07.42.42,0,0,1,.34.15.61.61,0,0,1,.12.41v.83Z" transform="translate(-26 -9.53)" fill="#010080"/><path d="M49.29,30.18v-.77h.32v.45Z" transform="translate(-26 -9.53)" fill="#010080"/><path d="M50.71,29.73V27.81H51v1.92Zm.16,0v-.3h.57a.36.36,0,0,0,.25-.07.24.24,0,0,0,.08-.19h0a.26.26,0,0,0-.08-.2.28.28,0,0,0-.22-.08h-.6V28.6h.6a.24.24,0,0,0,.2-.07.27.27,0,0,0,0-.36.34.34,0,0,0-.22-.06h-.58v-.3h.61a.56.56,0,0,1,.43.14.49.49,0,0,1,.15.38.44.44,0,0,1-.09.27.4.4,0,0,1-.27.15.43.43,0,0,1,.28.15.47.47,0,0,1,.11.31h0a.5.5,0,0,1-.16.38.56.56,0,0,1-.42.14Z" transform="translate(-26 -9.53)" fill="#010080"/><path d="M52.75,28.36v.84a.24.24,0,0,0,.25.25.24.24,0,0,0,.18-.06.27.27,0,0,0,.07-.18v.29a.41.41,0,0,1-.12.18.35.35,0,0,1-.23.07.42.42,0,0,1-.35-.14.63.63,0,0,1-.12-.41v-.84Zm.5,1.37V28.36h.31v1.37Z" transform="translate(-26 -9.53)" fill="#010080"/><path d="M53.94,28.12v-.31h.31v.31Zm0,1.61V28.36h.31v1.37Z" transform="translate(-26 -9.53)" fill="#010080"/><path d="M54.94,27.81v1.52a.11.11,0,0,0,0,.08s0,0,.07,0h.09v.31H55a.32.32,0,0,1-.25-.1.41.41,0,0,1-.08-.27V27.81Z" transform="translate(-26 -9.53)" fill="#010080"/><path d="M55.84,29.76a.41.41,0,0,1-.34-.15.65.65,0,0,1-.13-.43v-.26a.67.67,0,0,1,.12-.43.42.42,0,0,1,.34-.15.43.43,0,0,1,.22.06.65.65,0,0,1,.15.18l0,.3a.52.52,0,0,0,0-.14.24.24,0,0,0-.09-.08.21.21,0,0,0-.12,0,.25.25,0,0,0-.19.07.36.36,0,0,0-.06.22v.26a.33.33,0,0,0,.06.21.26.26,0,0,0,.19.08.21.21,0,0,0,.12,0,.2.2,0,0,0,.09-.09.51.51,0,0,0,0-.13l0,.3a.36.36,0,0,1-.13.17A.38.38,0,0,1,55.84,29.76Zm.33,0V27.81h.32v1.92Z" transform="translate(-26 -9.53)" fill="#010080"/><path d="M58.18,28.89A.32.32,0,0,0,58,29a.28.28,0,0,0-.08.23.26.26,0,0,0,.08.2.4.4,0,0,0,.26.07.41.41,0,0,0,.36-.19.93.93,0,0,0,.13-.53H59a1.27,1.27,0,0,1-.1.54.75.75,0,0,1-.29.34.85.85,0,0,1-.46.12.57.57,0,0,1-.43-.14.51.51,0,0,1-.16-.41.54.54,0,0,1,.14-.38.55.55,0,0,1,.37-.16Zm.59.84L58,29a1.21,1.21,0,0,1-.21-.31.81.81,0,0,1-.08-.34.55.55,0,0,1,.92-.39.48.48,0,0,1,.14.37v0h-.32v0a.3.3,0,0,0-.05-.18.21.21,0,0,0-.16-.06.21.21,0,0,0-.17.07.27.27,0,0,0-.06.19.63.63,0,0,0,.07.25,1.88,1.88,0,0,0,.19.26l.84.9Z" transform="translate(-26 -9.53)" fill="#010080"/><path d="M59.86,28.11v-.3h1.39v.3Zm.54,1.62V28h.31v1.76Z" transform="translate(-26 -9.53)" fill="#010080"/><path d="M61.41,29.73V27.81h.31v1.92Zm.81,0V28.9a.27.27,0,0,0-.06-.19.29.29,0,0,0-.19-.07.21.21,0,0,0-.18.07.21.21,0,0,0-.07.17l0-.28a.42.42,0,0,1,.15-.19.35.35,0,0,1,.23-.07.42.42,0,0,1,.34.15.61.61,0,0,1,.12.41v.83Z" transform="translate(-26 -9.53)" fill="#010080"/><path d="M62.92,29.73V28.36h.33v1.37Zm.77-1-.08-.05-.11,0a.25.25,0,0,0-.18.07.27.27,0,0,0-.07.2l0-.31a.51.51,0,0,1,.16-.19.31.31,0,0,1,.21-.07.38.38,0,0,1,.16,0,.26.26,0,0,1,.13.08Z" transform="translate(-26 -9.53)" fill="#010080"/><path d="M64.07,28.12v-.31h.32v.31Zm0,1.61V28.36h.32v1.37Z" transform="translate(-26 -9.53)" fill="#010080"/><path d="M65.25,29.28l.31-.92h.32l-.52,1.37h-.23l-.52-1.37h.33Z" transform="translate(-26 -9.53)" fill="#010080"/><path d="M66.67,29.75a.61.61,0,0,1-.46-.16.59.59,0,0,1-.16-.45V29a.64.64,0,0,1,.16-.47.56.56,0,0,1,.43-.17.45.45,0,0,1,.41.2.87.87,0,0,1,.15.54v.1h-.93v-.24h.64a.34.34,0,0,0-.09-.22.19.19,0,0,0-.18-.08.31.31,0,0,0-.22.08.4.4,0,0,0-.08.26v.17a.31.31,0,0,0,.33.33.4.4,0,0,0,.15,0l.14-.08.21.19a.87.87,0,0,1-.24.15A.63.63,0,0,1,66.67,29.75Z" transform="translate(-26 -9.53)" fill="#010080"/><path d="M69.49,27.81,68.92,29v.76H68.6V29L68,27.81h.34l.4.85.39-.85Z" transform="translate(-26 -9.53)" fill="#f65c15"/><path d="M70.06,29.75a.59.59,0,0,1-.43-.15.62.62,0,0,1-.15-.44v-.23a.62.62,0,0,1,.15-.44.69.69,0,0,1,.86,0,.62.62,0,0,1,.15.44v.23a.6.6,0,0,1-.15.44A.59.59,0,0,1,70.06,29.75Zm0-.3a.24.24,0,0,0,.19-.08.28.28,0,0,0,.07-.21v-.23a.28.28,0,0,0-.07-.21.27.27,0,0,0-.38,0,.28.28,0,0,0-.07.21v.23a.28.28,0,0,0,.07.21A.24.24,0,0,0,70.06,29.45Z" transform="translate(-26 -9.53)" fill="#f65c15"/><path d="M71.28,28.36v.84a.24.24,0,0,0,.25.25.24.24,0,0,0,.18-.06.26.26,0,0,0,.06-.18l0,.29a.41.41,0,0,1-.12.18.36.36,0,0,1-.24.07.4.4,0,0,1-.34-.14A.58.58,0,0,1,71,29.2v-.84Zm.49,1.37V28.36h.32v1.37Z" transform="translate(-26 -9.53)" fill="#f65c15"/><path d="M72.47,29.73V28.36h.33v1.37Zm.77-1-.08-.05-.11,0a.25.25,0,0,0-.18.07.32.32,0,0,0-.07.2l0-.31a.41.41,0,0,1,.15-.19.35.35,0,0,1,.21-.07.38.38,0,0,1,.16,0,.22.22,0,0,1,.13.08Z" transform="translate(-26 -9.53)" fill="#f65c15"/><path d="M74.39,29.73V27.81h.31v1.92Zm.18,0v-.3H75a.4.4,0,0,0,.3-.1.36.36,0,0,0,.11-.28v-.56a.38.38,0,0,0-.11-.28.4.4,0,0,0-.3-.1h-.45v-.3H75a.78.78,0,0,1,.55.18.66.66,0,0,1,.2.51V29a.7.7,0,0,1-.09.37.64.64,0,0,1-.25.24.86.86,0,0,1-.41.08Z" transform="translate(-26 -9.53)" fill="#f65c15"/><path d="M76.13,28.12v-.31h.32v.31Zm0,1.61V28.36h.32v1.37Z" transform="translate(-26 -9.53)" fill="#f65c15"/><path d="M77.25,29.76a.44.44,0,0,1-.35-.15.71.71,0,0,1-.12-.43v-.26a.67.67,0,0,1,.12-.43.42.42,0,0,1,.34-.15.43.43,0,0,1,.22.06.65.65,0,0,1,.15.18l0,.3a.29.29,0,0,0,0-.14.15.15,0,0,0-.08-.08.21.21,0,0,0-.12,0,.25.25,0,0,0-.19.07.36.36,0,0,0-.06.22v.26a.33.33,0,0,0,.06.21.26.26,0,0,0,.19.08.21.21,0,0,0,.12,0,.14.14,0,0,0,.08-.09.28.28,0,0,0,0-.13l0,.3a.36.36,0,0,1-.13.17A.38.38,0,0,1,77.25,29.76Zm0,.53a.82.82,0,0,1-.28-.05.48.48,0,0,1-.2-.17l.22-.19a.27.27,0,0,0,.12.09.23.23,0,0,0,.14,0,.29.29,0,0,0,.21-.08.23.23,0,0,0,.08-.2V28.36h.32v1.33a.54.54,0,0,1-.61.6Z" transform="translate(-26 -9.53)" fill="#f65c15"/><path d="M78.27,28.12v-.31h.32v.31Zm0,1.61V28.36h.32v1.37Z" transform="translate(-26 -9.53)" fill="#f65c15"/><path d="M78.86,28.64v-.28h.64v.28Zm.47,1.1a.32.32,0,0,1-.25-.09.46.46,0,0,1-.08-.27V28h.32v1.37s0,.06,0,.08a.05.05,0,0,0,0,0h.11v.3Z" transform="translate(-26 -9.53)" fill="#f65c15"/><path d="M80.26,29.75a.53.53,0,0,1-.36-.1.41.41,0,0,1-.12-.32A.39.39,0,0,1,79.9,29a.59.59,0,0,1,.36-.1h.37l0,.25h-.39a.2.2,0,0,0-.14,0,.14.14,0,0,0-.05.12.15.15,0,0,0,.06.13.45.45,0,0,0,.19,0,.61.61,0,0,0,.22,0s.08-.06.08-.11l0,.2a.21.21,0,0,1-.08.11.26.26,0,0,1-.13.06A.5.5,0,0,1,80.26,29.75Zm.36,0v-.87a.23.23,0,0,0-.26-.24l-.16,0a.39.39,0,0,0-.14.08l-.21-.18a.57.57,0,0,1,.21-.15.93.93,0,0,1,.29-.05.56.56,0,0,1,.41.13.49.49,0,0,1,.15.38v.88Z" transform="translate(-26 -9.53)" fill="#f65c15"/><path d="M81.61,27.81v1.52a.19.19,0,0,0,0,.08.11.11,0,0,0,.08,0h.09v.31h-.17a.3.3,0,0,1-.25-.1.37.37,0,0,1-.09-.27V27.81Z" transform="translate(-26 -9.53)" fill="#f65c15"/><path d="M82.83,29.73V27.81h.32v1.92ZM83,29v-.31h.61a.25.25,0,0,0,.19-.07.38.38,0,0,0,.07-.21.28.28,0,0,0-.07-.21.26.26,0,0,0-.19-.08H83v-.3h.6a.59.59,0,0,1,.31.07.53.53,0,0,1,.21.21.72.72,0,0,1,0,.62.45.45,0,0,1-.21.2.62.62,0,0,1-.31.08Z" transform="translate(-26 -9.53)" fill="#f65c15"/><path d="M84.43,29.73V28.36h.33v1.37Zm.77-1-.08-.05-.11,0a.25.25,0,0,0-.18.07.27.27,0,0,0-.07.2l0-.31a.43.43,0,0,1,.16-.19.31.31,0,0,1,.21-.07.41.41,0,0,1,.16,0,.26.26,0,0,1,.13.08Z" transform="translate(-26 -9.53)" fill="#f65c15"/><path d="M86.14,29.75a.61.61,0,0,1-.46-.16.63.63,0,0,1-.16-.45V29a.64.64,0,0,1,.16-.47.56.56,0,0,1,.43-.17.48.48,0,0,1,.42.2.94.94,0,0,1,.14.54v.1h-.93v-.24h.64a.41.41,0,0,0-.08-.22.22.22,0,0,0-.19-.08.33.33,0,0,0-.22.08.4.4,0,0,0-.07.26v.17a.29.29,0,0,0,.08.24.32.32,0,0,0,.24.09l.15,0,.14-.08.21.19a.75.75,0,0,1-.24.15A.6.6,0,0,1,86.14,29.75Z" transform="translate(-26 -9.53)" fill="#f65c15"/><path d="M87.52,29.75a1,1,0,0,1-.34-.05.69.69,0,0,1-.28-.15l.2-.24a1.13,1.13,0,0,0,.21.12.78.78,0,0,0,.21,0,.57.57,0,0,0,.22,0,.14.14,0,0,0,.08-.12.09.09,0,0,0,0-.09l-.14,0-.17,0-.17,0a.44.44,0,0,1-.16-.06A.29.29,0,0,1,87,29a.34.34,0,0,1,0-.19.41.41,0,0,1,.14-.33.67.67,0,0,1,.41-.11,1,1,0,0,1,.3,0,.87.87,0,0,1,.27.14l-.19.23a.72.72,0,0,0-.2-.09.63.63,0,0,0-.19,0,.5.5,0,0,0-.19,0,.13.13,0,0,0-.06.11.07.07,0,0,0,0,.07l.12,0h.16l.18,0a.48.48,0,0,1,.17,0,.34.34,0,0,1,.12.12.42.42,0,0,1,0,.22.4.4,0,0,1-.15.33A.7.7,0,0,1,87.52,29.75Z" transform="translate(-26 -9.53)" fill="#f65c15"/><path d="M89,29.75a.61.61,0,0,1-.46-.16.63.63,0,0,1-.16-.45V29a.68.68,0,0,1,.16-.47.57.57,0,0,1,.44-.17.47.47,0,0,1,.41.2.94.94,0,0,1,.14.54v.1H88.6v-.24h.64a.41.41,0,0,0-.08-.22.22.22,0,0,0-.18-.08.34.34,0,0,0-.23.08.4.4,0,0,0-.07.26v.17a.33.33,0,0,0,.08.24.32.32,0,0,0,.24.09l.15,0a.47.47,0,0,0,.14-.08l.21.19a.75.75,0,0,1-.24.15A.58.58,0,0,1,89,29.75Z" transform="translate(-26 -9.53)" fill="#f65c15"/><path d="M89.88,29.73V28.36h.31v1.37Zm.81,0V28.9a.27.27,0,0,0-.06-.19.29.29,0,0,0-.19-.07.21.21,0,0,0-.18.07.21.21,0,0,0-.07.17l0-.28a.49.49,0,0,1,.15-.19.35.35,0,0,1,.23-.07.42.42,0,0,1,.34.15.61.61,0,0,1,.12.41v.83Z" transform="translate(-26 -9.53)" fill="#f65c15"/><path d="M92,29.75a.61.61,0,0,1-.45-.16.63.63,0,0,1-.16-.45V29a.65.65,0,0,1,.16-.45.61.61,0,0,1,.45-.16.73.73,0,0,1,.3.06.42.42,0,0,1,.21.16l-.21.2a.38.38,0,0,0-.13-.09.4.4,0,0,0-.15,0,.32.32,0,0,0-.23.08.34.34,0,0,0-.08.23v.19a.34.34,0,0,0,.08.23.32.32,0,0,0,.23.08.4.4,0,0,0,.15,0,.41.41,0,0,0,.13-.1l.21.22a.49.49,0,0,1-.21.16A.73.73,0,0,1,92,29.75Z" transform="translate(-26 -9.53)" fill="#f65c15"/><path d="M93.32,29.75a.56.56,0,0,1-.61-.61V29a.68.68,0,0,1,.15-.47.57.57,0,0,1,.44-.17.47.47,0,0,1,.41.2.87.87,0,0,1,.14.54v.1h-.93v-.24h.64a.41.41,0,0,0-.08-.22.22.22,0,0,0-.18-.08.29.29,0,0,0-.22.08A.35.35,0,0,0,93,29v.17a.33.33,0,0,0,.08.24.32.32,0,0,0,.24.09l.16,0a.57.57,0,0,0,.13-.08l.21.19a.75.75,0,0,1-.24.15A.58.58,0,0,1,93.32,29.75Z" transform="translate(-26 -9.53)" fill="#f65c15"/><path d="M89.28,21.44a1.37,1.37,0,0,0-.69-.23,1.27,1.27,0,0,0,.65-.22.54.54,0,0,0,.21-.42v-.2a.6.6,0,0,0-.37-.55,2.36,2.36,0,0,0-1.08-.2H86.1v3.29h2a2.17,2.17,0,0,0,1-.21.6.6,0,0,0,.38-.55V21.9A.57.57,0,0,0,89.28,21.44ZM86.78,20h1.16a1.4,1.4,0,0,1,.61.1.33.33,0,0,1,.21.31v.2a.38.38,0,0,1-.2.33A1.22,1.22,0,0,1,88,21H86.78Zm2.06,2.15a.36.36,0,0,1-.22.31,1.78,1.78,0,0,1-.71.11H86.78V21.38H88a1.29,1.29,0,0,1,.63.13.41.41,0,0,1,.22.37Z" transform="translate(-26 -9.53)" fill="#010080" stroke="#010080" stroke-miterlimit="10" stroke-width="0.1"/><path d="M93.34,19.85a2.75,2.75,0,0,0-1.25-.23H90.35v3.29h1.74A3.46,3.46,0,0,0,93,22.8a1.28,1.28,0,0,0,.57-.3.69.69,0,0,0,.19-.5V20.53A.73.73,0,0,0,93.34,19.85ZM93.08,22a.42.42,0,0,1-.25.39,1.5,1.5,0,0,1-.71.13H91V20h1.08a1.5,1.5,0,0,1,.71.13.42.42,0,0,1,.25.39Z" transform="translate(-26 -9.53)" fill="#010080" stroke="#010080" stroke-miterlimit="10" stroke-width="0.1"/><polygon points="24 12.24 23.33 13.32 24.67 13.32 24 12.24" fill="#f65c15" stroke="#f65c15" stroke-miterlimit="10" stroke-width="0.1"/><polygon points="20.03 10.75 20.03 13.32 19.37 13.32 19.37 10.75 17.72 10.75 17.72 10.13 21.67 10.13 21.67 10.73 20.03 10.75" fill="#010080" stroke="#010080" stroke-miterlimit="10" stroke-width="0.1"/><path d="M47.67,22.85s1.65-2.74,1.78-2.88.36-.33.45-.3.35-.11.58.14,1.88,3,1.88,3h-.75L50,20.34l-1.58,2.57Z" transform="translate(-26 -9.53)" fill="#010080" stroke="#010080" stroke-miterlimit="10" stroke-width="0.1"/><rect x="27.19" y="10.14" width="0.64" height="3.17" fill="#010080" stroke="#010080" stroke-miterlimit="10" stroke-width="0.1"/><path d="M54.88,19.68s0,2,0,2.19a1,1,0,0,0,.09.46,1.46,1.46,0,0,0,.36.38,3.06,3.06,0,0,0,.62.14,10.07,10.07,0,0,0,1.1,0c.17,0,1.15,0,1.15,0v-.6s-2.09,0-2.18,0-.26,0-.33-.1a.56.56,0,0,1-.18-.28c0-.06,0-.91,0-1V19.68Z" transform="translate(-26 -9.53)" fill="#010080" stroke="#010080" stroke-miterlimit="10" stroke-width="0.1"/><path d="M62.79,21.83V20.54a1,1,0,0,0-.23-.51.93.93,0,0,0-.62-.35c-.23,0-.49,0-.89,0s-.94,0-1.13,0a.88.88,0,0,0-.7.23c-.27.28-.29.3-.35.51a5.81,5.81,0,0,0,0,1,7.26,7.26,0,0,0,.06.74,1.4,1.4,0,0,0,.31.51,1,1,0,0,0,.47.24c.11,0,.64,0,1,0s1.14,0,1.25,0A.93.93,0,0,0,62.79,21.83Zm-.59-.18a.64.64,0,0,1-.61.71c-.08,0-.64,0-.89,0s-.62,0-.7,0a.7.7,0,0,1-.33-.17.86.86,0,0,1-.22-.34c0-.08,0-.31,0-.51a3.38,3.38,0,0,1,0-.65c0-.15.06-.16.25-.35a.7.7,0,0,1,.5-.16c.12,0,.51,0,.79,0s.47,0,.63,0a.69.69,0,0,1,.44.24.74.74,0,0,1,.15.35Z" transform="translate(-26 -9.53)" fill="#010080" stroke="#010080" stroke-miterlimit="10" stroke-width="0.1"/><path d="M66.61,21.76a2.23,2.23,0,0,0,.68-.29.8.8,0,0,0,.17-.5v-.63c0-.18-.26-.43-.33-.51s-.27-.11-.46-.15-2.93,0-2.93,0v3.19h.62V21.74h1.32l1.06,1.13a5.11,5.11,0,0,1,.88,0C67.58,22.82,66.54,21.76,66.61,21.76Zm-1.15-.62c-.3,0-1.09,0-1.09,0v-.88s2.08-.07,2.22,0,.22.15.22.29.08.35-.07.47a.34.34,0,0,1-.31.12Z" transform="translate(-26 -9.53)" fill="#010080" stroke="#010080" stroke-miterlimit="10" stroke-width="0.1"/><rect x="42.43" y="10.13" width="3.48" height="0.64" fill="#010080" stroke="#010080" stroke-miterlimit="10" stroke-width="0.1"/><rect x="42.43" y="11.43" width="3.48" height="0.64" fill="#f65c15" stroke="#f65c15" stroke-miterlimit="10" stroke-width="0.1"/><rect x="42.43" y="12.71" width="3.48" height="0.64" fill="#010080" stroke="#010080" stroke-miterlimit="10" stroke-width="0.1"/><path d="M76.39,21a2.4,2.4,0,0,0,0-.58c0-.08-.08-.29-.24-.42s-.19-.19-.37-.24a3.3,3.3,0,0,0-.9,0c-.41,0-2,0-2,0v3.23s2.49.06,2.68,0a1.93,1.93,0,0,0,.68-.42,1.89,1.89,0,0,0,.24-.6C76.37,21.77,76.4,21.12,76.39,21Zm-.58.74a1.67,1.67,0,0,1-.16.4,1.26,1.26,0,0,1-.47.29c-.12,0-1.8,0-1.8,0V20.21h1.37a2.08,2.08,0,0,1,.61,0c.12,0,.13.07.25.16a.63.63,0,0,1,.16.28,1.41,1.41,0,0,1,0,.39C75.81,21.18,75.8,21.62,75.81,21.7Z" transform="translate(-26 -9.53)" fill="#010080" stroke="#010080" stroke-miterlimit="10" stroke-width="0.1"/><rect x="52.89" y="10.14" width="0.64" height="3.23" fill="#f65c15" stroke="#f65c15" stroke-miterlimit="10" stroke-width="0.1"/><polygon points="57.72 10.13 54.1 10.13 54.1 10.77 55.59 10.77 55.59 13.38 56.23 13.38 56.23 10.77 57.72 10.77 57.72 10.13" fill="#f65c15" stroke="#f65c15" stroke-miterlimit="10" stroke-width="0.1"/><path d="M43.72,25.37q25-.27,50.05,0-25,.28-50,0Z" transform="translate(-26 -9.53)" fill="#010080"/></svg>